<svg width="102" height="214" viewBox="0 0 102 214" fill="none" xmlns="http://www.w3.org/2000/svg">
<path fill-rule="evenodd" clip-rule="evenodd" d="M4 2C4 3.10457 3.10457 4 2 4C0.895431 4 0 3.10457 0 2C0 0.895431 0.895431 0 2 0C3.10457 0 4 0.895431 4 2ZM4 16C4 17.1046 3.10457 18 2 18C0.895431 18 0 17.1046 0 16C0 14.8954 0.895431 14 2 14C3.10457 14 4 14.8954 4 16ZM2 32C3.10457 32 4 31.1046 4 30C4 28.8954 3.10457 28 2 28C0.895431 28 0 28.8954 0 30C0 31.1046 0.895431 32 2 32ZM4 44C4 45.1046 3.10457 46 2 46C0.895431 46 0 45.1046 0 44C0 42.8954 0.895431 42 2 42C3.10457 42 4 42.8954 4 44ZM2 60C3.10457 60 4 59.1046 4 58C4 56.8954 3.10457 56 2 56C0.895431 56 0 56.8954 0 58C0 59.1046 0.895431 60 2 60ZM4 72C4 73.1046 3.10457 74 2 74C0.895431 74 0 73.1046 0 72C0 70.8954 0.895431 70 2 70C3.10457 70 4 70.8954 4 72ZM2 88C3.10457 88 4 87.1046 4 86C4 84.8954 3.10457 84 2 84C0.895431 84 0 84.8954 0 86C0 87.1046 0.895431 88 2 88ZM4 100C4 101.105 3.10457 102 2 102C0.895431 102 0 101.105 0 100C0 98.8954 0.895431 98 2 98C3.10457 98 4 98.8954 4 100ZM18 2C18 3.10457 17.1046 4 16 4C14.8954 4 14 3.10457 14 2C14 0.895431 14.8954 0 16 0C17.1046 0 18 0.895431 18 2ZM18 16C18 17.1046 17.1046 18 16 18C14.8954 18 14 17.1046 14 16C14 14.8954 14.8954 14 16 14C17.1046 14 18 14.8954 18 16ZM16 32C17.1046 32 18 31.1046 18 30C18 28.8954 17.1046 28 16 28C14.8954 28 14 28.8954 14 30C14 31.1046 14.8954 32 16 32ZM18 44C18 45.1046 17.1046 46 16 46C14.8954 46 14 45.1046 14 44C14 42.8954 14.8954 42 16 42C17.1046 42 18 42.8954 18 44ZM16 60C17.1046 60 18 59.1046 18 58C18 56.8954 17.1046 56 16 56C14.8954 56 14 56.8954 14 58C14 59.1046 14.8954 60 16 60ZM18 72C18 73.1046 17.1046 74 16 74C14.8954 74 14 73.1046 14 72C14 70.8954 14.8954 70 16 70C17.1046 70 18 70.8954 18 72ZM16 88C17.1046 88 18 87.1046 18 86C18 84.8954 17.1046 84 16 84C14.8954 84 14 84.8954 14 86C14 87.1046 14.8954 88 16 88ZM18 100C18 101.105 17.1046 102 16 102C14.8954 102 14 101.105 14 100C14 98.8954 14.8954 98 16 98C17.1046 98 18 98.8954 18 100ZM30 4C31.1046 4 32 3.10457 32 2C32 0.895431 31.1046 0 30 0C28.8954 0 28 0.895431 28 2C28 3.10457 28.8954 4 30 4ZM30 18C31.1046 18 32 17.1046 32 16C32 14.8954 31.1046 14 30 14C28.8954 14 28 14.8954 28 16C28 17.1046 28.8954 18 30 18ZM32 30C32 31.1046 31.1046 32 30 32C28.8954 32 28 31.1046 28 30C28 28.8954 28.8954 28 30 28C31.1046 28 32 28.8954 32 30ZM30 46C31.1046 46 32 45.1046 32 44C32 42.8954 31.1046 42 30 42C28.8954 42 28 42.8954 28 44C28 45.1046 28.8954 46 30 46ZM32 58C32 59.1046 31.1046 60 30 60C28.8954 60 28 59.1046 28 58C28 56.8954 28.8954 56 30 56C31.1046 56 32 56.8954 32 58ZM30 74C31.1046 74 32 73.1046 32 72C32 70.8954 31.1046 70 30 70C28.8954 70 28 70.8954 28 72C28 73.1046 28.8954 74 30 74ZM32 86C32 87.1046 31.1046 88 30 88C28.8954 88 28 87.1046 28 86C28 84.8954 28.8954 84 30 84C31.1046 84 32 84.8954 32 86ZM30 102C31.1046 102 32 101.105 32 100C32 98.8954 31.1046 98 30 98C28.8954 98 28 98.8954 28 100C28 101.105 28.8954 102 30 102ZM46 2C46 3.10457 45.1046 4 44 4C42.8954 4 42 3.10457 42 2C42 0.895431 42.8954 0 44 0C45.1046 0 46 0.895431 46 2ZM46 16C46 17.1046 45.1046 18 44 18C42.8954 18 42 17.1046 42 16C42 14.8954 42.8954 14 44 14C45.1046 14 46 14.8954 46 16ZM44 32C45.1046 32 46 31.1046 46 30C46 28.8954 45.1046 28 44 28C42.8954 28 42 28.8954 42 30C42 31.1046 42.8954 32 44 32ZM46 44C46 45.1046 45.1046 46 44 46C42.8954 46 42 45.1046 42 44C42 42.8954 42.8954 42 44 42C45.1046 42 46 42.8954 46 44ZM44 60C45.1046 60 46 59.1046 46 58C46 56.8954 45.1046 56 44 56C42.8954 56 42 56.8954 42 58C42 59.1046 42.8954 60 44 60ZM46 72C46 73.1046 45.1046 74 44 74C42.8954 74 42 73.1046 42 72C42 70.8954 42.8954 70 44 70C45.1046 70 46 70.8954 46 72ZM44 88C45.1046 88 46 87.1046 46 86C46 84.8954 45.1046 84 44 84C42.8954 84 42 84.8954 42 86C42 87.1046 42.8954 88 44 88ZM46 100C46 101.105 45.1046 102 44 102C42.8954 102 42 101.105 42 100C42 98.8954 42.8954 98 44 98C45.1046 98 46 98.8954 46 100ZM58 4C59.1046 4 60 3.10457 60 2C60 0.895431 59.1046 0 58 0C56.8954 0 56 0.895431 56 2C56 3.10457 56.8954 4 58 4ZM58 18C59.1046 18 60 17.1046 60 16C60 14.8954 59.1046 14 58 14C56.8954 14 56 14.8954 56 16C56 17.1046 56.8954 18 58 18ZM60 30C60 31.1046 59.1046 32 58 32C56.8954 32 56 31.1046 56 30C56 28.8954 56.8954 28 58 28C59.1046 28 60 28.8954 60 30ZM58 46C59.1046 46 60 45.1046 60 44C60 42.8954 59.1046 42 58 42C56.8954 42 56 42.8954 56 44C56 45.1046 56.8954 46 58 46ZM60 58C60 59.1046 59.1046 60 58 60C56.8954 60 56 59.1046 56 58C56 56.8954 56.8954 56 58 56C59.1046 56 60 56.8954 60 58ZM58 74C59.1046 74 60 73.1046 60 72C60 70.8954 59.1046 70 58 70C56.8954 70 56 70.8954 56 72C56 73.1046 56.8954 74 58 74ZM60 86C60 87.1046 59.1046 88 58 88C56.8954 88 56 87.1046 56 86C56 84.8954 56.8954 84 58 84C59.1046 84 60 84.8954 60 86ZM58 102C59.1046 102 60 101.105 60 100C60 98.8954 59.1046 98 58 98C56.8954 98 56 98.8954 56 100C56 101.105 56.8954 102 58 102ZM72 4C73.1046 4 74 3.10457 74 2C74 0.895431 73.1046 0 72 0C70.8954 0 70 0.895431 70 2C70 3.10457 70.8954 4 72 4ZM72 18C73.1046 18 74 17.1046 74 16C74 14.8954 73.1046 14 72 14C70.8954 14 70 14.8954 70 16C70 17.1046 70.8954 18 72 18ZM74 30C74 31.1046 73.1046 32 72 32C70.8954 32 70 31.1046 70 30C70 28.8954 70.8954 28 72 28C73.1046 28 74 28.8954 74 30ZM72 46C73.1046 46 74 45.1046 74 44C74 42.8954 73.1046 42 72 42C70.8954 42 70 42.8954 70 44C70 45.1046 70.8954 46 72 46ZM74 58C74 59.1046 73.1046 60 72 60C70.8954 60 70 59.1046 70 58C70 56.8954 70.8954 56 72 56C73.1046 56 74 56.8954 74 58ZM72 74C73.1046 74 74 73.1046 74 72C74 70.8954 73.1046 70 72 70C70.8954 70 70 70.8954 70 72C70 73.1046 70.8954 74 72 74ZM74 86C74 87.1046 73.1046 88 72 88C70.8954 88 70 87.1046 70 86C70 84.8954 70.8954 84 72 84C73.1046 84 74 84.8954 74 86ZM72 102C73.1046 102 74 101.105 74 100C74 98.8954 73.1046 98 72 98C70.8954 98 70 98.8954 70 100C70 101.105 70.8954 102 72 102ZM88 2C88 3.10457 87.1046 4 86 4C84.8954 4 84 3.10457 84 2C84 0.895431 84.8954 0 86 0C87.1046 0 88 0.895431 88 2ZM88 16C88 17.1046 87.1046 18 86 18C84.8954 18 84 17.1046 84 16C84 14.8954 84.8954 14 86 14C87.1046 14 88 14.8954 88 16ZM86 32C87.1046 32 88 31.1046 88 30C88 28.8954 87.1046 28 86 28C84.8954 28 84 28.8954 84 30C84 31.1046 84.8954 32 86 32ZM88 44C88 45.1046 87.1046 46 86 46C84.8954 46 84 45.1046 84 44C84 42.8954 84.8954 42 86 42C87.1046 42 88 42.8954 88 44ZM86 60C87.1046 60 88 59.1046 88 58C88 56.8954 87.1046 56 86 56C84.8954 56 84 56.8954 84 58C84 59.1046 84.8954 60 86 60ZM88 72C88 73.1046 87.1046 74 86 74C84.8954 74 84 73.1046 84 72C84 70.8954 84.8954 70 86 70C87.1046 70 88 70.8954 88 72ZM86 88C87.1046 88 88 87.1046 88 86C88 84.8954 87.1046 84 86 84C84.8954 84 84 84.8954 84 86C84 87.1046 84.8954 88 86 88ZM88 100C88 101.105 87.1046 102 86 102C84.8954 102 84 101.105 84 100C84 98.8954 84.8954 98 86 98C87.1046 98 88 98.8954 88 100ZM100 4C101.105 4 102 3.10457 102 2C102 0.895431 101.105 0 100 0C98.8954 0 98 0.895431 98 2C98 3.10457 98.8954 4 100 4ZM100 18C101.105 18 102 17.1046 102 16C102 14.8954 101.105 14 100 14C98.8954 14 98 14.8954 98 16C98 17.1046 98.8954 18 100 18ZM102 30C102 31.1046 101.105 32 100 32C98.8954 32 98 31.1046 98 30C98 28.8954 98.8954 28 100 28C101.105 28 102 28.8954 102 30ZM100 46C101.105 46 102 45.1046 102 44C102 42.8954 101.105 42 100 42C98.8954 42 98 42.8954 98 44C98 45.1046 98.8954 46 100 46ZM102 58C102 59.1046 101.105 60 100 60C98.8954 60 98 59.1046 98 58C98 56.8954 98.8954 56 100 56C101.105 56 102 56.8954 102 58ZM100 74C101.105 74 102 73.1046 102 72C102 70.8954 101.105 70 100 70C98.8954 70 98 70.8954 98 72C98 73.1046 98.8954 74 100 74ZM102 86C102 87.1046 101.105 88 100 88C98.8954 88 98 87.1046 98 86C98 84.8954 98.8954 84 100 84C101.105 84 102 84.8954 102 86ZM100 102C101.105 102 102 101.105 102 100C102 98.8954 101.105 98 100 98C98.8954 98 98 98.8954 98 100C98 101.105 98.8954 102 100 102ZM58 116C59.1046 116 60 115.105 60 114C60 112.895 59.1046 112 58 112C56.8954 112 56 112.895 56 114C56 115.105 56.8954 116 58 116ZM58 130C59.1046 130 60 129.105 60 128C60 126.895 59.1046 126 58 126C56.8954 126 56 126.895 56 128C56 129.105 56.8954 130 58 130ZM60 142C60 143.105 59.1046 144 58 144C56.8954 144 56 143.105 56 142C56 140.895 56.8954 140 58 140C59.1046 140 60 140.895 60 142ZM58 158C59.1046 158 60 157.105 60 156C60 154.895 59.1046 154 58 154C56.8954 154 56 154.895 56 156C56 157.105 56.8954 158 58 158ZM60 170C60 171.105 59.1046 172 58 172C56.8954 172 56 171.105 56 170C56 168.895 56.8954 168 58 168C59.1046 168 60 168.895 60 170ZM58 186C59.1046 186 60 185.105 60 184C60 182.895 59.1046 182 58 182C56.8954 182 56 182.895 56 184C56 185.105 56.8954 186 58 186ZM60 198C60 199.105 59.1046 200 58 200C56.8954 200 56 199.105 56 198C56 196.895 56.8954 196 58 196C59.1046 196 60 196.895 60 198ZM58 214C59.1046 214 60 213.105 60 212C60 210.895 59.1046 210 58 210C56.8954 210 56 210.895 56 212C56 213.105 56.8954 214 58 214ZM72 116C73.1046 116 74 115.105 74 114C74 112.895 73.1046 112 72 112C70.8954 112 70 112.895 70 114C70 115.105 70.8954 116 72 116ZM72 130C73.1046 130 74 129.105 74 128C74 126.895 73.1046 126 72 126C70.8954 126 70 126.895 70 128C70 129.105 70.8954 130 72 130ZM74 142C74 143.105 73.1046 144 72 144C70.8954 144 70 143.105 70 142C70 140.895 70.8954 140 72 140C73.1046 140 74 140.895 74 142ZM72 158C73.1046 158 74 157.105 74 156C74 154.895 73.1046 154 72 154C70.8954 154 70 154.895 70 156C70 157.105 70.8954 158 72 158ZM74 170C74 171.105 73.1046 172 72 172C70.8954 172 70 171.105 70 170C70 168.895 70.8954 168 72 168C73.1046 168 74 168.895 74 170ZM72 186C73.1046 186 74 185.105 74 184C74 182.895 73.1046 182 72 182C70.8954 182 70 182.895 70 184C70 185.105 70.8954 186 72 186ZM74 198C74 199.105 73.1046 200 72 200C70.8954 200 70 199.105 70 198C70 196.895 70.8954 196 72 196C73.1046 196 74 196.895 74 198ZM72 214C73.1046 214 74 213.105 74 212C74 210.895 73.1046 210 72 210C70.8954 210 70 210.895 70 212C70 213.105 70.8954 214 72 214ZM88 114C88 115.105 87.1046 116 86 116C84.8954 116 84 115.105 84 114C84 112.895 84.8954 112 86 112C87.1046 112 88 112.895 88 114ZM88 128C88 129.105 87.1046 130 86 130C84.8954 130 84 129.105 84 128C84 126.895 84.8954 126 86 126C87.1046 126 88 126.895 88 128ZM86 144C87.1046 144 88 143.105 88 142C88 140.895 87.1046 140 86 140C84.8954 140 84 140.895 84 142C84 143.105 84.8954 144 86 144ZM88 156C88 157.105 87.1046 158 86 158C84.8954 158 84 157.105 84 156C84 154.895 84.8954 154 86 154C87.1046 154 88 154.895 88 156ZM86 172C87.1046 172 88 171.105 88 170C88 168.895 87.1046 168 86 168C84.8954 168 84 168.895 84 170C84 171.105 84.8954 172 86 172ZM88 184C88 185.105 87.1046 186 86 186C84.8954 186 84 185.105 84 184C84 182.895 84.8954 182 86 182C87.1046 182 88 182.895 88 184ZM86 200C87.1046 200 88 199.105 88 198C88 196.895 87.1046 196 86 196C84.8954 196 84 196.895 84 198C84 199.105 84.8954 200 86 200ZM88 212C88 213.105 87.1046 214 86 214C84.8954 214 84 213.105 84 212C84 210.895 84.8954 210 86 210C87.1046 210 88 210.895 88 212ZM100 116C101.105 116 102 115.105 102 114C102 112.895 101.105 112 100 112C98.8954 112 98 112.895 98 114C98 115.105 98.8954 116 100 116ZM100 130C101.105 130 102 129.105 102 128C102 126.895 101.105 126 100 126C98.8954 126 98 126.895 98 128C98 129.105 98.8954 130 100 130ZM102 142C102 143.105 101.105 144 100 144C98.8954 144 98 143.105 98 142C98 140.895 98.8954 140 100 140C101.105 140 102 140.895 102 142ZM100 158C101.105 158 102 157.105 102 156C102 154.895 101.105 154 100 154C98.8954 154 98 154.895 98 156C98 157.105 98.8954 158 100 158ZM102 170C102 171.105 101.105 172 100 172C98.8954 172 98 171.105 98 170C98 168.895 98.8954 168 100 168C101.105 168 102 168.895 102 170ZM100 186C101.105 186 102 185.105 102 184C102 182.895 101.105 182 100 182C98.8954 182 98 182.895 98 184C98 185.105 98.8954 186 100 186ZM102 198C102 199.105 101.105 200 100 200C98.8954 200 98 199.105 98 198C98 196.895 98.8954 196 100 196C101.105 196 102 196.895 102 198ZM100 214C101.105 214 102 213.105 102 212C102 210.895 101.105 210 100 210C98.8954 210 98 210.895 98 212C98 213.105 98.8954 214 100 214ZM2 116C3.10457 116 4 115.105 4 114C4 112.895 3.10457 112 2 112C0.895431 112 0 112.895 0 114C0 115.105 0.895431 116 2 116ZM2 130C3.10457 130 4 129.105 4 128C4 126.895 3.10457 126 2 126C0.895431 126 0 126.895 0 128C0 129.105 0.895431 130 2 130ZM4 142C4 143.105 3.10457 144 2 144C0.895431 144 0 143.105 0 142C0 140.895 0.895431 140 2 140C3.10457 140 4 140.895 4 142ZM2 158C3.10457 158 4 157.105 4 156C4 154.895 3.10457 154 2 154C0.895431 154 0 154.895 0 156C0 157.105 0.895431 158 2 158ZM4 170C4 171.105 3.10457 172 2 172C0.895431 172 0 171.105 0 170C0 168.895 0.895431 168 2 168C3.10457 168 4 168.895 4 170ZM2 186C3.10457 186 4 185.105 4 184C4 182.895 3.10457 182 2 182C0.895431 182 0 182.895 0 184C0 185.105 0.895431 186 2 186ZM4 198C4 199.105 3.10457 200 2 200C0.895431 200 0 199.105 0 198C0 196.895 0.895431 196 2 196C3.10457 196 4 196.895 4 198ZM2 214C3.10457 214 4 213.105 4 212C4 210.895 3.10457 210 2 210C0.895431 210 0 210.895 0 212C0 213.105 0.895431 214 2 214ZM16 116C17.1046 116 18 115.105 18 114C18 112.895 17.1046 112 16 112C14.8954 112 14 112.895 14 114C14 115.105 14.8954 116 16 116ZM16 130C17.1046 130 18 129.105 18 128C18 126.895 17.1046 126 16 126C14.8954 126 14 126.895 14 128C14 129.105 14.8954 130 16 130ZM18 142C18 143.105 17.1046 144 16 144C14.8954 144 14 143.105 14 142C14 140.895 14.8954 140 16 140C17.1046 140 18 140.895 18 142ZM16 158C17.1046 158 18 157.105 18 156C18 154.895 17.1046 154 16 154C14.8954 154 14 154.895 14 156C14 157.105 14.8954 158 16 158ZM18 170C18 171.105 17.1046 172 16 172C14.8954 172 14 171.105 14 170C14 168.895 14.8954 168 16 168C17.1046 168 18 168.895 18 170ZM16 186C17.1046 186 18 185.105 18 184C18 182.895 17.1046 182 16 182C14.8954 182 14 182.895 14 184C14 185.105 14.8954 186 16 186ZM18 198C18 199.105 17.1046 200 16 200C14.8954 200 14 199.105 14 198C14 196.895 14.8954 196 16 196C17.1046 196 18 196.895 18 198ZM16 214C17.1046 214 18 213.105 18 212C18 210.895 17.1046 210 16 210C14.8954 210 14 210.895 14 212C14 213.105 14.8954 214 16 214ZM32 114C32 115.105 31.1046 116 30 116C28.8954 116 28 115.105 28 114C28 112.895 28.8954 112 30 112C31.1046 112 32 112.895 32 114ZM32 128C32 129.105 31.1046 130 30 130C28.8954 130 28 129.105 28 128C28 126.895 28.8954 126 30 126C31.1046 126 32 126.895 32 128ZM30 144C31.1046 144 32 143.105 32 142C32 140.895 31.1046 140 30 140C28.8954 140 28 140.895 28 142C28 143.105 28.8954 144 30 144ZM32 156C32 157.105 31.1046 158 30 158C28.8954 158 28 157.105 28 156C28 154.895 28.8954 154 30 154C31.1046 154 32 154.895 32 156ZM30 172C31.1046 172 32 171.105 32 170C32 168.895 31.1046 168 30 168C28.8954 168 28 168.895 28 170C28 171.105 28.8954 172 30 172ZM32 184C32 185.105 31.1046 186 30 186C28.8954 186 28 185.105 28 184C28 182.895 28.8954 182 30 182C31.1046 182 32 182.895 32 184ZM30 200C31.1046 200 32 199.105 32 198C32 196.895 31.1046 196 30 196C28.8954 196 28 196.895 28 198C28 199.105 28.8954 200 30 200ZM32 212C32 213.105 31.1046 214 30 214C28.8954 214 28 213.105 28 212C28 210.895 28.8954 210 30 210C31.1046 210 32 210.895 32 212ZM44 116C45.1046 116 46 115.105 46 114C46 112.895 45.1046 112 44 112C42.8954 112 42 112.895 42 114C42 115.105 42.8954 116 44 116ZM44 130C45.1046 130 46 129.105 46 128C46 126.895 45.1046 126 44 126C42.8954 126 42 126.895 42 128C42 129.105 42.8954 130 44 130ZM46 142C46 143.105 45.1046 144 44 144C42.8954 144 42 143.105 42 142C42 140.895 42.8954 140 44 140C45.1046 140 46 140.895 46 142ZM44 158C45.1046 158 46 157.105 46 156C46 154.895 45.1046 154 44 154C42.8954 154 42 154.895 42 156C42 157.105 42.8954 158 44 158ZM46 170C46 171.105 45.1046 172 44 172C42.8954 172 42 171.105 42 170C42 168.895 42.8954 168 44 168C45.1046 168 46 168.895 46 170ZM44 186C45.1046 186 46 185.105 46 184C46 182.895 45.1046 182 44 182C42.8954 182 42 182.895 42 184C42 185.105 42.8954 186 44 186ZM46 198C46 199.105 45.1046 200 44 200C42.8954 200 42 199.105 42 198C42 196.895 42.8954 196 44 196C45.1046 196 46 196.895 46 198ZM44 214C45.1046 214 46 213.105 46 212C46 210.895 45.1046 210 44 210C42.8954 210 42 210.895 42 212C42 213.105 42.8954 214 44 214Z" fill="#EB6852"/>
</svg>
