<svg width="20" height="20" viewBox="0 0 20 20" fill="none" xmlns="http://www.w3.org/2000/svg">
<path d="M15 8.125H13.75C13.7495 7.62787 13.5518 7.15125 13.2003 6.79972C12.8488 6.4482 12.3721 6.2505 11.875 6.25V5C12.7035 5.00099 13.4978 5.33055 14.0836 5.91639C14.6694 6.50222 14.999 7.2965 15 8.125Z" fill="white"/>
<path d="M17.5 8.125H16.25C16.2487 6.96508 15.7873 5.85305 14.9671 5.03287C14.1469 4.21268 13.0349 3.75132 11.875 3.75V2.5C13.3663 2.50165 14.7961 3.09482 15.8506 4.14935C16.9052 5.20389 17.4983 6.63367 17.5 8.125Z" fill="white"/>
<path d="M12.7081 13.4263L14.1081 12.0263C14.2955 11.8388 14.5338 11.7105 14.7934 11.6572C15.0531 11.6038 15.3227 11.6279 15.5688 11.7263L17.2738 12.4088C17.5251 12.5093 17.7405 12.6828 17.8922 12.907C18.0439 13.1311 18.125 13.3956 18.125 13.6663V16.7669C18.1255 16.9512 18.0883 17.1336 18.0158 17.303C17.9432 17.4725 17.8369 17.6253 17.7033 17.7522C17.5697 17.8791 17.4115 17.9774 17.2386 18.0411C17.0656 18.1047 16.8815 18.1325 16.6975 18.1225C4.74626 17.3788 2.33251 7.25626 1.88439 3.38001C1.86268 3.1905 1.88134 2.99855 1.93915 2.81678C1.99695 2.63501 2.09258 2.46753 2.21974 2.32537C2.34691 2.1832 2.50274 2.06957 2.67697 1.99195C2.8512 1.91433 3.0399 1.87447 3.23064 1.87501H6.27626C6.54693 1.875 6.81139 1.95609 7.03553 2.10782C7.25968 2.25955 7.43321 2.47496 7.53376 2.72626L8.21564 4.43126C8.31404 4.67736 8.33807 4.94694 8.28474 5.20657C8.23141 5.4662 8.10308 5.70448 7.91564 5.89188L6.51564 7.29188C6.51564 7.29188 7.29189 12.7494 12.7081 13.4263Z" fill="white"/>
</svg>
