<svg width="17" height="16" viewBox="0 0 17 16" fill="none" xmlns="http://www.w3.org/2000/svg">
<path d="M13.8657 11.7225C15.0964 10.3868 14.9725 8.6716 14.9685 8.65204V3.43464C14.9685 3.26168 14.8998 3.09579 14.7775 2.97349C14.6552 2.85118 14.4893 2.78247 14.3164 2.78247H10.4033C9.68398 2.78247 9.09898 3.36747 9.09898 4.08682V8.65204C9.09898 8.825 9.16769 8.99089 9.29 9.11319C9.4123 9.2355 9.57819 9.30421 9.75115 9.30421H11.7585C11.7448 9.62664 11.6484 9.94012 11.4788 10.2146C11.1475 10.737 10.5233 11.0938 9.62268 11.2738L9.09898 11.3781V13.2173H9.75115C11.5662 13.2173 12.9507 12.7144 13.8657 11.7225ZM6.68724 11.7225C7.91854 10.3868 7.79398 8.6716 7.79007 8.65204V3.43464C7.79007 3.26168 7.72136 3.09579 7.59905 2.97349C7.47674 2.85118 7.31086 2.78247 7.13789 2.78247H3.22485C2.5055 2.78247 1.9205 3.36747 1.9205 4.08682V8.65204C1.9205 8.825 1.98921 8.99089 2.11152 9.11319C2.23383 9.2355 2.39971 9.30421 2.57268 9.30421H4.58007C4.56629 9.62664 4.46995 9.94012 4.30028 10.2146C3.96898 10.737 3.34485 11.0938 2.4442 11.2738L1.9205 11.3781V13.2173H2.57268C4.38768 13.2173 5.77224 12.7144 6.68724 11.7225Z" fill="white"/>
</svg>
